<?xml version="1.0" encoding="utf-8"?>
<!-- Generator: Adobe Illustrator 23.0.3, SVG Export Plug-In . SVG Version: 6.00 Build 0)  -->
<svg version="1.1" id="OBJECTS" xmlns="http://www.w3.org/2000/svg" xmlns:xlink="http://www.w3.org/1999/xlink" x="0px" y="0px"
	 viewBox="0 0 500 500" style="enable-background:new 0 0 500 500;" xml:space="preserve">
<style type="text/css">
	.st0{fill:#F5F9FF;}
	.st1{fill:#D0DBF7;}
	.st2{fill:#F2F2F2;}
	.st3{fill:#E3EBFC;}
	.st4{fill:#EDF0FC;}
	.st5{fill:#E2E6FF;}
	.st6{fill:#CAD2F9;}
	.st7{fill:#EEF1FF;}
	.st8{fill:#CD3232;}
	.st9{fill:#C2CEF2;}
	.st10{fill:#7997F2;}
	.st11{fill:#AFC2E8;}
	.st12{fill:#EB725F;}
	.st13{fill:#FFFFFF;}
	.st14{opacity:0.1;fill:#0046A0;}
	.st15{opacity:0.3;}
</style>
<g>
	<g>
		<g>
			<rect x="62.1" y="208.47" class="st0" width="166.2" height="122.6"/>
			<rect x="62.1" y="208.47" class="st1" width="166.2" height="15.29"/>
		</g>
		<g>
			<path class="st2" d="M75.44,216.47c0,1.93-1.57,3.5-3.5,3.5c-1.93,0-3.5-1.57-3.5-3.5s1.57-3.5,3.5-3.5
				C73.87,212.97,75.44,214.54,75.44,216.47z"/>
			<path class="st2" d="M87.22,216.47c0,1.93-1.57,3.5-3.5,3.5s-3.5-1.57-3.5-3.5s1.57-3.5,3.5-3.5S87.22,214.54,87.22,216.47z"/>
			<path class="st2" d="M99.01,216.47c0,1.93-1.57,3.5-3.5,3.5c-1.93,0-3.5-1.57-3.5-3.5s1.57-3.5,3.5-3.5
				C97.44,212.97,99.01,214.54,99.01,216.47z"/>
		</g>
		<polygon class="st3" points="173.57,257.11 165.22,248.75 145.2,268.77 125.18,248.75 116.82,257.11 136.84,277.13 116.82,297.14 
			125.18,305.5 145.2,285.48 165.22,305.5 173.57,297.14 153.55,277.13 		"/>
	</g>
	<g>
		<g>
			<rect x="266.12" y="131.14" class="st0" width="166.2" height="122.6"/>
			<rect x="266.12" y="131.14" class="st1" width="166.2" height="15.29"/>
		</g>
		<g>
			<path class="st2" d="M279.46,139.14c0,1.93-1.57,3.5-3.5,3.5c-1.93,0-3.5-1.57-3.5-3.5s1.57-3.5,3.5-3.5
				C277.9,135.64,279.46,137.21,279.46,139.14z"/>
			<path class="st2" d="M291.25,139.14c0,1.93-1.57,3.5-3.5,3.5c-1.93,0-3.5-1.57-3.5-3.5s1.57-3.5,3.5-3.5
				C289.68,135.64,291.25,137.21,291.25,139.14z"/>
			<path class="st2" d="M303.03,139.14c0,1.93-1.57,3.5-3.5,3.5c-1.93,0-3.5-1.57-3.5-3.5s1.57-3.5,3.5-3.5
				C301.46,135.64,303.03,137.21,303.03,139.14z"/>
		</g>
		<polygon class="st3" points="377.6,179.78 369.24,171.43 349.22,191.44 329.2,171.43 320.85,179.78 340.87,199.8 320.85,219.82 
			329.2,228.17 349.22,208.16 369.24,228.17 377.6,219.82 357.58,199.8 		"/>
	</g>
</g>
<ellipse class="st4" cx="249" cy="412.68" rx="203.17" ry="17.56"/>
<g>
	<g>
		<path class="st5" d="M199.45,133.18c-1.55-3.24-1.47-6.38,0.24-9.43l0.83-1.45c0.81-1.32,1.33-2.34,1.56-3.06
			c0.23-0.71,0.16-1.43-0.18-2.17c-0.88-1.84-2.86-2.03-5.95-0.56c-1.43,0.68-2.82,1.58-4.16,2.69c-1.34,1.11-2.53,2.34-3.57,3.69
			l-3.5-7.34c2.29-2.73,5.24-4.96,8.87-6.69c3.91-1.87,7.4-2.53,10.47-1.98c3.07,0.55,5.29,2.26,6.67,5.16
			c0.77,1.62,1.03,3.11,0.78,4.46c-0.25,1.35-0.96,3.06-2.12,5.14c-0.77,1.42-1.31,2.49-1.63,3.21c-0.32,0.72-0.48,1.43-0.48,2.13
			c0,0.7,0.2,1.47,0.6,2.29l0.43,0.91l-8.39,4L199.45,133.18z M205.88,144.13c-1.25-0.44-2.16-1.28-2.75-2.52
			c-0.61-1.27-0.69-2.52-0.24-3.75c0.45-1.23,1.31-2.15,2.58-2.75c1.24-0.59,2.5-0.67,3.77-0.25c1.28,0.43,2.21,1.26,2.8,2.5
			c0.59,1.24,0.65,2.49,0.18,3.75c-0.47,1.26-1.33,2.18-2.57,2.78C208.38,144.49,207.12,144.58,205.88,144.13z"/>
	</g>
	<g>
		<path class="st5" d="M240.2,105.17c2.09-4.99,5.7-8.05,10.83-9.18l2.46-0.52c2.3-0.42,3.97-0.85,4.99-1.31
			c1.03-0.46,1.78-1.25,2.25-2.38c1.19-2.84-0.59-5.25-5.34-7.24c-2.2-0.92-4.6-1.58-7.19-1.98c-2.59-0.4-5.17-0.5-7.72-0.3
			l4.73-11.3c5.36-0.17,10.83,0.91,16.41,3.25c6.02,2.52,10.26,5.78,12.72,9.77c2.47,4,2.77,8.22,0.9,12.67
			c-1.05,2.5-2.45,4.28-4.22,5.35c-1.77,1.07-4.4,1.99-7.89,2.78c-2.36,0.56-4.11,1.02-5.24,1.39c-1.13,0.36-2.09,0.89-2.87,1.6
			c-0.79,0.71-1.44,1.7-1.98,2.97l-0.58,1.4l-12.91-5.41L240.2,105.17z M234.34,123.37c-0.75-1.84-0.73-3.71,0.07-5.62
			c0.82-1.96,2.14-3.3,3.97-4.03c1.83-0.73,3.72-0.68,5.68,0.14c1.91,0.8,3.26,2.13,4.07,3.99c0.8,1.86,0.8,3.74,0,5.65
			s-2.14,3.23-4.03,3.96c-1.89,0.73-3.79,0.7-5.69-0.1C236.45,126.54,235.1,125.21,234.34,123.37z"/>
	</g>
</g>
<g>
	<polygon class="st6" points="449.71,285.13 449.71,279.39 445.89,279.39 445.89,285.13 440.15,285.13 440.15,288.95 445.89,288.95 
		445.89,294.69 449.71,294.69 449.71,288.95 455.45,288.95 455.45,285.13 	"/>
	<polygon class="st6" points="413.66,101.36 413.66,92.6 407.84,92.6 407.84,101.36 399.08,101.36 399.08,107.18 407.84,107.18 
		407.84,115.94 413.66,115.94 413.66,107.18 422.41,107.18 422.41,101.36 	"/>
	<polygon class="st6" points="397.79,270.84 397.79,266.66 395.01,266.66 395.01,270.84 390.83,270.84 390.83,273.62 395.01,273.62 
		395.01,277.8 397.79,277.8 397.79,273.62 401.97,273.62 401.97,270.84 	"/>
	<polygon class="st6" points="159.36,125.41 159.36,121.23 156.58,121.23 156.58,125.41 152.4,125.41 152.4,128.19 156.58,128.19 
		156.58,132.37 159.36,132.37 159.36,128.19 163.55,128.19 163.55,125.41 	"/>
	<polygon class="st6" points="127.13,97.76 127.13,92.02 123.32,92.02 123.32,97.76 117.58,97.76 117.58,101.57 123.32,101.57 
		123.32,107.32 127.13,107.32 127.13,101.57 132.87,101.57 132.87,97.76 	"/>
</g>
<g>
	<path class="st7" d="M315.66,109.48c0,1.21-0.98,2.18-2.18,2.18c-1.21,0-2.18-0.98-2.18-2.18c0-1.21,0.98-2.18,2.18-2.18
		C314.69,107.3,315.66,108.27,315.66,109.48z"/>
	<path class="st7" d="M324.6,71.94c0,1.21-0.98,2.18-2.18,2.18c-1.21,0-2.18-0.98-2.18-2.18c0-1.21,0.98-2.18,2.18-2.18
		C323.63,69.76,324.6,70.74,324.6,71.94z"/>
	<circle class="st7" cx="367.26" cy="89.89" r="4.13"/>
	<path class="st7" d="M454.35,245.18c0,1.21-0.98,2.18-2.18,2.18c-1.21,0-2.18-0.98-2.18-2.18c0-1.21,0.98-2.18,2.18-2.18
		C453.37,243,454.35,243.98,454.35,245.18z"/>
	<path class="st7" d="M452.17,313.35c0,1.21-0.98,2.18-2.18,2.18c-1.21,0-2.18-0.98-2.18-2.18c0-1.21,0.98-2.18,2.18-2.18
		C451.19,311.16,452.17,312.14,452.17,313.35z"/>
	<path class="st7" d="M119.76,194.13c0,1.21-0.98,2.18-2.18,2.18c-1.21,0-2.18-0.98-2.18-2.18c0-1.21,0.98-2.18,2.18-2.18
		C118.78,191.94,119.76,192.92,119.76,194.13z"/>
	<circle class="st7" cx="81.76" cy="103.58" r="4.13"/>
	<path class="st7" d="M163.29,80.26c0,1.21-0.98,2.18-2.18,2.18c-1.21,0-2.18-0.98-2.18-2.18c0-1.21,0.98-2.18,2.18-2.18
		C162.31,78.07,163.29,79.05,163.29,80.26z"/>
	<path class="st7" d="M48.02,211.18c0,1.21-0.98,2.18-2.18,2.18c-1.21,0-2.18-0.98-2.18-2.18c0-1.21,0.98-2.18,2.18-2.18
		C47.04,209,48.02,209.98,48.02,211.18z"/>
	<path class="st7" d="M48.02,327.53c0,1.21-0.98,2.18-2.18,2.18c-1.21,0-2.18-0.98-2.18-2.18c0-1.21,0.98-2.18,2.18-2.18
		C47.04,325.35,48.02,326.32,48.02,327.53z"/>
</g>
<g>
	<path class="st8" d="M347.45,398.93c-0.81,5.35-6.18,9.73-11.95,9.73H165.01c-5.76,0-11.2-4.37-12.08-9.71l-28.23-171.2
		c-0.88-5.34,3.11-9.71,8.88-9.71h230.74c5.76,0,9.82,4.38,9.01,9.73L347.45,398.93z"/>
	<g>
		<polygon class="st9" points="304.67,160.83 161.1,160.83 161.1,363.08 336.66,363.08 336.66,193.3 		"/>
		<polygon class="st10" points="304.67,160.83 336.9,193.06 304.67,193.06 		"/>
		<polygon class="st11" points="297.62,224.79 283.3,210.47 249,244.77 214.7,210.47 200.39,224.79 234.68,259.08 200.39,293.38 
			214.7,307.7 249,273.4 283.3,307.7 297.62,293.38 263.32,259.08 		"/>
	</g>
	<g>
		<path class="st12" d="M377.05,276.62l-111.39,0.16c-4.53,0.01-9.32-3.53-10.66-7.86l-6.58-21.33c-1.33-4.33-6.13-7.87-10.66-7.87
			H120.82c-4.53,0-7.58,3.65-6.79,8.1l28.55,160.86c0.79,4.46,5.14,8.1,9.67,8.1h202.59c4.53,0,8.81-3.66,9.52-8.13L384,284.74
			C384.71,280.26,381.58,276.61,377.05,276.62z"/>
		<g>
			<path class="st13" d="M237.17,352.17c0-6.26,2.49-11.14,7.46-14.64l2.39-1.66c2.27-1.47,3.85-2.68,4.74-3.64
				c0.89-0.95,1.34-2.13,1.34-3.54c0-3.56-2.98-5.34-8.93-5.34c-2.76,0-5.62,0.37-8.56,1.11c-2.94,0.74-5.74,1.78-8.38,3.13V313.4
				c5.65-2.58,11.97-3.87,18.97-3.87c7.55,0,13.54,1.58,17.95,4.74c4.42,3.16,6.63,7.53,6.63,13.12c0,3.13-0.71,5.66-2.12,7.6
				c-1.41,1.93-3.81,4.1-7.18,6.49c-2.27,1.66-3.93,2.93-4.97,3.82c-1.04,0.89-1.83,1.89-2.35,2.99c-0.52,1.11-0.78,2.46-0.78,4.05
				v1.75h-16.21V352.17z M239.06,374.22c-1.63-1.63-2.44-3.64-2.44-6.03c0-2.45,0.81-4.48,2.44-6.08c1.62-1.6,3.67-2.39,6.12-2.39
				c2.39,0,4.44,0.81,6.12,2.44c1.69,1.63,2.53,3.64,2.53,6.03c0,2.39-0.85,4.4-2.53,6.03c-1.69,1.63-3.73,2.44-6.12,2.44
				C242.73,376.66,240.68,375.84,239.06,374.22z"/>
		</g>
		<path class="st14" d="M377.05,276.62l-12.67,0.02c0.28,2.92,0.43,5.86,0.43,8.83c0,66.43-71.1,120.29-158.81,120.29
			c-23.5,0-45.8-3.87-65.86-10.8l2.44,13.74c0.79,4.46,5.14,8.1,9.67,8.1h202.59c4.53,0,8.81-3.66,9.52-8.13L384,284.74
			C384.71,280.26,381.58,276.61,377.05,276.62z"/>
	</g>
	<g class="st15">
		<path class="st13" d="M133.69,263.6c0.6,4.04,1.2,8.08,1.81,12.11c1.43,9.61,2.87,19.22,4.3,28.83c1.75,11.7,3.49,23.4,5.24,35.1
			c1.5,10.05,3,20.09,4.49,30.14c0.5,3.34,1,6.68,1.49,10.01c0.23,1.57,0.37,3.19,0.71,4.74c0.01,0.07,0.02,0.14,0.03,0.2
			c0.21,1.38,1.94,2.13,3.16,1.8c1.47-0.4,2-1.78,1.8-3.16c-0.6-4.04-1.2-8.08-1.81-12.11c-1.43-9.61-2.87-19.22-4.3-28.83
			c-1.75-11.7-3.49-23.4-5.24-35.1c-1.5-10.05-3-20.09-4.49-30.14c-0.5-3.34-1-6.68-1.49-10.01c-0.23-1.57-0.37-3.19-0.71-4.74
			c-0.01-0.07-0.02-0.14-0.03-0.2c-0.21-1.38-1.94-2.13-3.16-1.8C134.01,260.84,133.48,262.22,133.69,263.6L133.69,263.6z"/>
	</g>
</g>
<g>
	<path class="st12" d="M122.75,166.8v-27.14c0-3.26-2.67-5.93-5.93-5.93H67.35c-3.26,0-5.93,2.67-5.93,5.93v34.2
		c0,3.26,2.67,5.93,5.93,5.93h44.29h5.18h20.2L122.75,166.8z"/>
	<g>
		<g>
			<path class="st13" d="M83.82,152.95c0,2.6-1.51,4.71-3.38,4.71c-1.87,0-3.38-2.11-3.38-4.71c0-2.6,1.51-4.71,3.38-4.71
				C82.31,148.23,83.82,150.34,83.82,152.95z"/>
			<path class="st13" d="M106.28,152.95c0,2.6-1.51,4.71-3.38,4.71c-1.87,0-3.38-2.11-3.38-4.71c0-2.6,1.51-4.71,3.38-4.71
				C104.77,148.23,106.28,150.34,106.28,152.95z"/>
		</g>
		<g>
			<path class="st13" d="M83.93,166.13c1.16-1.27,2.77-2.27,4.37-2.84c4.06-1.46,7.98,0.07,11.07,2.84
				c0.83,0.74,2.05-0.48,1.22-1.22c-3.43-3.08-7.87-4.89-12.43-3.4c-2,0.65-4.03,1.83-5.46,3.4
				C81.96,165.73,83.17,166.95,83.93,166.13L83.93,166.13z"/>
		</g>
	</g>
	<path class="st14" d="M122.75,166.8v-27.14c0-3.26-2.67-5.93-5.93-5.93h-5.07c0.88,3.22,1.35,6.57,1.35,10
		c0,14.42-8.19,27.33-21.11,36.06h19.65h5.18h20.2L122.75,166.8z"/>
</g>
</svg>
